<svg color="currentColor" width="160" height="160" viewBox="0 0 160 160" fill="none" xmlns="http://www.w3.org/2000/svg">
<path d="M80.4278 18.808V160H86.2194V28.928C100.185 34.952 110.003 49.104 110.003 65.664C110.003 80.184 102.977 92.224 91.6716 99.176V108.024C106.764 100.112 117.714 84.24 117.714 65.656C117.722 42.512 101.72 23.192 80.4278 18.808ZM54.2154 57.248L52.3337 54.736C43.8199 61.912 37.4962 71.912 34.7894 83.968C29.368 108.064 40.2108 134.608 65.0968 145.768L65.8525 141.984C44.0513 133.568 32.553 107.416 37.6813 84.648C40.2339 73.24 46.1103 64 54.2154 57.248ZM28.913 82.712C32.9617 64.704 44.3135 50.488 58.7885 42.848L54.9789 37.432C39.1928 45.976 26.8617 61.52 22.4351 81.176C14.5459 116.304 34.9359 151.096 67.981 158.936C71.0888 159.672 72.9628 159.768 76.0552 160V153.648C73.1556 153.472 72.3073 153.36 69.3922 152.648C39.9177 145.68 21.7873 114.344 28.913 82.712ZM120.768 64.72C120.768 76.424 116.92 87.16 110.512 95.608L112.964 97.4C119.696 88.448 123.73 77.072 123.73 64.728C123.73 40.048 107.697 19.392 86.1577 13.872L86.15 17.104C106.085 22.512 120.768 41.76 120.768 64.72ZM75.4614 0C72.2842 0 69.13 0.272001 66.0762 0.752001L66.6468 7.216C69.5156 6.704 72.4692 6.448 75.4614 6.448C105.661 6.448 130.13 32.768 130.13 65.216C130.13 84.184 121.771 101.056 108.784 111.8L113.704 116.176C127.74 104.248 136.739 85.832 136.739 65.216C136.747 29.192 109.309 0 75.4614 0ZM70.9346 59.648L66.3307 53.088C54.0689 59.168 44.514 70.704 41.221 85.376C36.2238 107.592 47.2208 129.808 66.4772 139.232L68.1352 131.168C53.1203 122.888 44.7453 105.032 48.7478 87.16C51.6165 74.424 60.1304 64.544 70.9346 59.648Z" fill="currentColor"/>
</svg>
