<svg width="24" height="24" viewBox="0 0 24 24" fill="none" xmlns="http://www.w3.org/2000/svg">
<path d="M0 12C0 5.37258 5.37258 0 12 0C18.6274 0 24 5.37258 24 12C24 18.6274 18.6274 24 12 24C5.37258 24 0 18.6274 0 12Z" fill="#58DB7D"/>
<path d="M11.8145 13.3858C11.0334 14.1668 9.7671 14.1668 8.98605 13.3858L6.90027 11.3C6.51367 10.9134 5.88687 10.9134 5.50027 11.3C5.11367 11.6866 5.11367 12.3134 5.50027 12.7L8.98606 16.1858C9.76711 16.9668 11.0334 16.9668 11.8145 16.1858L19.2002 8.80003C19.5868 8.41343 19.5868 7.78663 19.2002 7.40003C18.8136 7.01343 18.1868 7.01343 17.8002 7.40003L11.8145 13.3858Z" fill="#FCFCFC"/>
</svg>
